AdventPro-reg.ufo
<glyph name="dollar" format="2">
  <advance width="530" height="962"/>
  <unicode hex="0024"/>
  <outline>
    <component base="S" xOffset="1.4784"/>
    <contour>
      <point x="249" y="-114" type="line"/>
      <point x="249" y="329.306" type="line"/>
      <point x="249" y="818" type="line"/>
      <point x="305" y="818" type="line"/>
      <point x="305" y="327.089" type="line"/>
      <point x="305" y="-114" type="line"/>
    </contour>
  </outline>
</glyph>
<glyph name="four" format="2">
  <advance width="489" height="962"/>
  <unicode hex="0034"/>
  <outline>
    <contour>
      <point x="332" y="0" type="line"/>
      <point x="332" y="356" type="line"/>
      <point x="16" y="356" type="line"/>
      <point x="210" y="700" type="line"/>
      <point x="269" y="700" type="line"/>
      <point x="113" y="414" type="line"/>
      <point x="332" y="414" type="line"/>
      <point x="332" y="700" type="line"/>
      <point x="389" y="700" type="line"/>
      <point x="389" y="414" type="line"/>
      <point x="462" y="414" type="line"/>
      <point x="441" y="356" type="line"/>
      <point x="389" y="356" type="line"/>
      <point x="389" y="0" type="line"/>
    </contour>
  </outline>
</glyph>
<glyph name="five" format="2">
  <advance width="440" height="962"/>
  <unicode hex="0035"/>
  <outline>
    <contour>
      <point x="117" y="412" type="line"/>
      <point x="170" y="412" type="line" smooth="yes"/>
      <point x="302" y="412"/>
      <point x="412" y="345"/>
      <point x="412" y="199" type="curve" smooth="yes"/>
      <point x="412" y="97"/>
      <point x="336" y="-12"/>
      <point x="202" y="-12" type="curve" smooth="yes"/>
      <point x="105" y="-12"/>
      <point x="28" y="44"/>
      <point x="28" y="42" type="curve"/>
      <point x="49" y="89" type="line"/>
      <point x="49" y="91"/>
      <point x="112" y="44"/>
      <point x="199" y="44" type="curve" smooth="yes"/>
      <point x="279" y="44"/>
      <point x="356" y="106"/>
      <point x="356" y="201" type="curve" smooth="yes"/>
      <point x="356" y="289"/>
      <point x="291" y="356"/>
      <point x="170" y="356" type="curve" smooth="yes"/>
      <point x="54" y="356" type="line"/>
      <point x="92" y="700" type="line"/>
      <point x="357" y="700" type="line"/>
      <point x="357" y="643" type="line"/>
      <point x="141" y="643" type="line"/>
    </contour>
  </outline>
</glyph>
<glyph name="I" format="2">
  <advance width="187" height="962"/>
  <unicode hex="0049"/>
  <outline>
    <contour>
      <point x="20" y="651" type="line"/>
      <point x="20" y="700" type="line"/>
      <point x="144" y="700" type="line"/>
      <point x="144" y="0" type="line"/>
      <point x="88" y="0" type="line"/>
      <point x="88" y="649" type="line"/>
    </contour>
  </outline>
</glyph>
<glyph name="K" format="2">
  <advance width="459" height="962"/>
  <unicode hex="004B"/>
  <outline>
    <contour>
      <point x="98" y="367" type="line"/>
      <point x="321" y="700" type="line"/>
      <point x="386" y="700" type="line"/>
      <point x="182" y="398" type="line"/>
      <point x="438" y="0" type="line"/>
      <point x="371" y="0" type="line"/>
      <point x="145" y="345" type="line"/>
      <point x="98" y="269" type="line"/>
      <point x="98" y="0" type="line"/>
      <point x="41" y="0" type="line"/>
      <point x="41" y="700" type="line"/>
      <point x="98" y="700" type="line"/>
    </contour>
  </outline>
</glyph>
<glyph name="T" format="2">
  <advance width="417" height="962"/>
  <unicode hex="0054"/>
  <outline>
    <contour>
      <point x="233" y="650" type="line"/>
      <point x="233" y="0" type="line"/>
      <point x="178" y="0" type="line"/>
      <point x="178" y="650" type="line"/>
      <point x="7" y="650" type="line"/>
      <point x="7" y="700" type="line"/>
      <point x="409" y="700" type="line"/>
      <point x="409" y="650" type="line"/>
    </contour>
  </outline>
</glyph>
<glyph name="e" format="2">
  <advance width="422" height="962"/>
  <unicode hex="0065"/>
  <outline>
    <contour>
      <point x="87" y="134" type="line" smooth="yes"/>
      <point x="87" y="63"/>
      <point x="134" y="36"/>
      <point x="199" y="36" type="curve" smooth="yes"/>
      <point x="248" y="36"/>
      <point x="295" y="52"/>
      <point x="345" y="78" type="curve"/>
      <point x="367" y="35" type="line"/>
      <point x="317" y="5"/>
      <point x="255" y="-12"/>
      <point x="204" y="-12" type="curve" smooth="yes"/>
      <point x="102" y="-12"/>
      <point x="31" y="22"/>
      <point x="31" y="134" type="curve" smooth="yes"/>
      <point x="31" y="339" type="line" smooth="yes"/>
      <point x="31" y="452"/>
      <point x="110" y="510"/>
      <point x="216" y="510" type="curve" smooth="yes"/>
      <point x="323" y="510"/>
      <point x="392" y="453"/>
      <point x="392" y="342" type="curve" smooth="yes"/>
      <point x="392" y="212" type="line"/>
      <point x="87" y="196" type="line"/>
    </contour>
    <contour>
      <point x="336" y="349" type="line" smooth="yes"/>
      <point x="336" y="419"/>
      <point x="284" y="463"/>
      <point x="215" y="463" type="curve" smooth="yes"/>
      <point x="136" y="463"/>
      <point x="87" y="418"/>
      <point x="87" y="338" type="curve" smooth="yes"/>
      <point x="87" y="251" type="line"/>
      <point x="336" y="262" type="line"/>
    </contour>
  </outline>
</glyph>
<glyph name="i" format="2">
  <advance width="133" height="962"/>
  <unicode hex="0069"/>
  <outline>
    <contour>
      <point x="38" y="0" type="line"/>
      <point x="38" y="501" type="line"/>
      <point x="95" y="501" type="line"/>
      <point x="95" y="0" type="line"/>
    </contour>
    <contour>
      <point x="67" y="710" type="curve" smooth="yes"/>
      <point x="85" y="710"/>
      <point x="101" y="695"/>
      <point x="101" y="676" type="curve" smooth="yes"/>
      <point x="101" y="659"/>
      <point x="85" y="643"/>
      <point x="67" y="643" type="curve" smooth="yes"/>
      <point x="49" y="643"/>
      <point x="33" y="659"/>
      <point x="33" y="676" type="curve" smooth="yes"/>
      <point x="33" y="695"/>
      <point x="49" y="710"/>
    </contour>
  </outline>
</glyph>
<glyph name="braceleft" format="2">
  <advance width="258" height="962"/>
  <unicode hex="007B"/>
  <outline>
    <contour>
      <point x="163" y="517" type="line" smooth="yes"/>
      <point x="163" y="447.123"/>
      <point x="151.567" y="399.604"/>
      <point x="96" y="353" type="curve"/>
      <point x="151.384" y="306.549"/>
      <point x="163" y="259.777"/>
      <point x="163" y="190" type="curve" smooth="yes"/>
      <point x="163" y="76" type="line" smooth="yes"/>
      <point x="163" y="-13"/>
      <point x="208" y="-52"/>
      <point x="239" y="-67" type="curve"/>
      <point x="216" y="-118" type="line"/>
      <point x="211" y="-115"/>
      <point x="106" y="-84"/>
      <point x="106" y="76" type="curve" smooth="yes"/>
      <point x="106" y="190" type="line" smooth="yes"/>
      <point x="106" y="257.587"/>
      <point x="91.9582" y="303.031"/>
      <point x="36" y="345" type="curve" smooth="yes"/>
      <point x="25" y="353" type="line"/>
      <point x="36" y="361" type="line" smooth="yes"/>
      <point x="92.4186" y="403.314"/>
      <point x="106" y="448.935"/>
      <point x="106" y="517" type="curve" smooth="yes"/>
      <point x="106" y="630" type="line" smooth="yes"/>
      <point x="106" y="792"/>
      <point x="213" y="820"/>
      <point x="216" y="823" type="curve"/>
      <point x="238" y="774" type="line"/>
      <point x="209" y="758"/>
      <point x="163" y="720"/>
      <point x="163" y="630" type="curve" smooth="yes"/>
    </contour>
  </outline>
</glyph>
<glyph name="paragraph" format="2">
  <advance width="622" height="962"/>
  <unicode hex="00B6"/>
  <outline>
    <contour>
      <point x="228" y="247" type="line" smooth="yes"/>
      <point x="97" y="247"/>
      <point x="30" y="310"/>
      <point x="30" y="476" type="curve" smooth="yes"/>
      <point x="30" y="647"/>
      <point x="101" y="702"/>
      <point x="228" y="702" type="curve" smooth="yes"/>
      <point x="579" y="702" type="line"/>
      <point x="579" y="1" type="line"/>
      <point x="523" y="1" type="line"/>
      <point x="523" y="649" type="line"/>
      <point x="464" y="649" type="line"/>
      <point x="464" y="1" type="line"/>
      <point x="408" y="1" type="line"/>
      <point x="408" y="247" type="line"/>
    </contour>
    <contour>
      <point x="224" y="649" type="line" smooth="yes"/>
      <point x="146" y="649"/>
      <point x="86" y="617"/>
      <point x="86" y="476" type="curve" smooth="yes"/>
      <point x="86" y="323"/>
      <point x="148" y="301"/>
      <point x="224" y="301" type="curve" smooth="yes"/>
      <point x="408" y="301" type="line"/>
      <point x="408" y="649" type="line"/>
    </contour>
  </outline>
</glyph>
<glyph name="Hbar" format="2">
  <advance width="515" height="962"/>
  <unicode hex="0126"/>
  <outline>
    <contour>
      <point x="0" y="500" type="line"/>
      <point x="0" y="556" type="line"/>
      <point x="515" y="556" type="line"/>
      <point x="515" y="500" type="line"/>
    </contour>
    <contour>
      <point x="415" y="412" type="line"/>
      <point x="415" y="700" type="line"/>
      <point x="472" y="700" type="line"/>
      <point x="472" y="0" type="line"/>
      <point x="415" y="0" type="line"/>
      <point x="415" y="357" type="line"/>
      <point x="98" y="357" type="line"/>
      <point x="98" y="0" type="line"/>
      <point x="41" y="0" type="line"/>
      <point x="41" y="700" type="line"/>
      <point x="98" y="700" type="line"/>
      <point x="98" y="412" type="line"/>
    </contour>
  </outline>
</glyph>
<glyph name="delta" format="2">
  <advance width="432" height="962"/>
  <unicode hex="03B4"/>
  <outline>
    <contour>
      <point x="242" y="653" type="line" smooth="yes"/>
      <point x="206" y="653"/>
      <point x="181" y="632"/>
      <point x="181" y="600" type="curve" smooth="yes"/>
      <point x="181" y="560"/>
      <point x="204" y="548"/>
      <point x="231" y="526" type="curve" smooth="yes"/>
      <point x="283" y="490"/>
      <point x="334" y="457"/>
      <point x="369" y="403" type="curve" smooth="yes"/>
      <point x="392" y="369"/>
      <point x="401" y="323"/>
      <point x="401" y="280" type="curve" smooth="yes"/>
      <point x="401" y="184" type="line" smooth="yes"/>
      <point x="401" y="54"/>
      <point x="339" y="-11"/>
      <point x="216" y="-11" type="curve" smooth="yes"/>
      <point x="89" y="-11"/>
      <point x="28" y="62"/>
      <point x="28" y="184" type="curve" smooth="yes"/>
      <point x="28" y="309" type="line" smooth="yes"/>
      <point x="28" y="419"/>
      <point x="76" y="471"/>
      <point x="175" y="504" type="curve"/>
      <point x="166" y="512" type="line" smooth="yes"/>
      <point x="135" y="542"/>
      <point x="125" y="573"/>
      <point x="127" y="599" type="curve" smooth="yes"/>
      <point x="131" y="656"/>
      <point x="178" y="700"/>
      <point x="251" y="700" type="curve" smooth="yes"/>
      <point x="357" y="700" type="line"/>
      <point x="335" y="653" type="line"/>
    </contour>
    <contour>
      <point x="345" y="295" type="line" smooth="yes"/>
      <point x="345" y="361"/>
      <point x="306" y="415"/>
      <point x="255" y="449" type="curve" smooth="yes"/>
      <point x="229" y="465" type="line"/>
      <point x="92" y="446"/>
      <point x="84" y="357"/>
      <point x="84" y="309" type="curve" smooth="yes"/>
      <point x="84" y="174" type="line" smooth="yes"/>
      <point x="84" y="86"/>
      <point x="137" y="38"/>
      <point x="217" y="38" type="curve" smooth="yes"/>
      <point x="302" y="38"/>
      <point x="345" y="84"/>
      <point x="345" y="174" type="curve" smooth="yes"/>
    </contour>
  </outline>
</glyph>
<glyph name="uni0409" format="2">
  <advance width="848" height="962"/>
  <unicode hex="0409"/>
  <outline>
    <contour>
      <point x="665" y="411" type="line" smooth="yes"/>
      <point x="745" y="411"/>
      <point x="818" y="362"/>
      <point x="818" y="251" type="curve" smooth="yes"/>
      <point x="818" y="167" type="line" smooth="yes"/>
      <point x="818" y="16"/>
      <point x="720" y="-12"/>
      <point x="591" y="-12" type="curve" smooth="yes"/>
      <point x="542" y="-12"/>
      <point x="428" y="-2"/>
      <point x="430" y="-2" type="curve"/>
      <point x="430" y="647" type="line"/>
      <point x="394" y="647" type="line" smooth="yes"/>
      <point x="341" y="647"/>
      <point x="311" y="621"/>
      <point x="298" y="578" type="curve" smooth="yes"/>
      <point x="156" y="112" type="line" smooth="yes"/>
      <point x="134" y="40"/>
      <point x="113" y="4"/>
      <point x="53" y="-11" type="curve"/>
      <point x="16" y="20" type="line"/>
      <point x="74" y="38"/>
      <point x="97" y="102"/>
      <point x="104" y="124" type="curve" smooth="yes"/>
      <point x="234" y="557" type="line" smooth="yes"/>
      <point x="247" y="600"/>
      <point x="268" y="700"/>
      <point x="388" y="700" type="curve" smooth="yes"/>
      <point x="487" y="700" type="line"/>
      <point x="487" y="411" type="line"/>
    </contour>
    <contour>
      <point x="763" y="174" type="curve" smooth="yes"/>
      <point x="763" y="249" type="line" smooth="yes"/>
      <point x="763" y="340"/>
      <point x="704" y="356"/>
      <point x="669" y="356" type="curve" smooth="yes"/>
      <point x="487" y="356" type="line"/>
      <point x="487" y="44" type="line"/>
      <point x="487" y="44"/>
      <point x="595" y="35"/>
      <point x="616" y="35" type="curve" smooth="yes"/>
      <point x="733" y="35"/>
      <point x="763" y="83"/>
    </contour>
  </outline>
</glyph>
<glyph name="uni0428" format="2">
  <advance width="641" height="962"/>
  <unicode hex="0428"/>
  <outline>
    <contour>
      <point x="542" y="700" type="line"/>
      <point x="600" y="700" type="line"/>
      <point x="600" y="0" type="line"/>
      <point x="44" y="0" type="line"/>
      <point x="44" y="700" type="line"/>
      <point x="102" y="700" type="line"/>
      <point x="102" y="57" type="line"/>
      <point x="293" y="57" type="line"/>
      <point x="293" y="700" type="line"/>
      <point x="351" y="700" type="line"/>
      <point x="351" y="57" type="line"/>
      <point x="542" y="57" type="line"/>
    </contour>
  </outline>
</glyph>
<glyph name="uni042E" format="2">
  <advance width="692" height="962"/>
  <unicode hex="042E"/>
  <outline>
    <component base="O" xOffset="202"/>
    <component base="I" xOffset="-2"/>
    <contour>
      <point x="267" y="380" type="line"/>
      <point x="267" y="322" type="line"/>
      <point x="114" y="322" type="line"/>
      <point x="114" y="380" type="line"/>
    </contour>
  </outline>
</glyph>
<glyph name="uni045F" format="2">
  <advance width="444" height="962"/>
  <unicode hex="045F"/>
  <outline>
    <contour>
      <point x="404" y="500" type="line"/>
      <point x="404" y="0" type="line"/>
      <point x="245" y="0" type="line"/>
      <point x="243" y="-107" type="line"/>
      <point x="196" y="-107" type="line"/>
      <point x="194" y="0" type="line"/>
      <point x="35" y="0" type="line"/>
      <point x="35" y="500" type="line"/>
      <point x="93" y="500" type="line"/>
      <point x="93" y="57" type="line"/>
      <point x="347" y="57" type="line"/>
      <point x="347" y="500" type="line"/>
    </contour>
  </outline>
</glyph>
<glyph name="uni046B" format="2">
  <advance width="578" height="962"/>
  <unicode hex="046B"/>
  <outline>
    <contour>
      <point x="365" y="300" type="line" smooth="yes"/>
      <point x="491" y="300"/>
      <point x="552" y="225"/>
      <point x="552" y="104" type="curve" smooth="yes"/>
      <point x="552" y="0" type="line"/>
      <point x="499" y="0" type="line"/>
      <point x="499" y="114" type="line" smooth="yes"/>
      <point x="499" y="202"/>
      <point x="444" y="250"/>
      <point x="365" y="250" type="curve" smooth="yes"/>
      <point x="315" y="250" type="line"/>
      <point x="315" y="0" type="line"/>
      <point x="258" y="0" type="line"/>
      <point x="258" y="250" type="line"/>
      <point x="214" y="250" type="line" smooth="yes"/>
      <point x="134" y="250"/>
      <point x="81" y="202"/>
      <point x="81" y="114" type="curve" smooth="yes"/>
      <point x="81" y="0" type="line"/>
      <point x="25" y="0" type="line"/>
      <point x="25" y="104" type="line" smooth="yes"/>
      <point x="25" y="225"/>
      <point x="87" y="300"/>
      <point x="214" y="300" type="curve" smooth="yes"/>
      <point x="228" y="300" type="line"/>
      <point x="69" y="500" type="line"/>
      <point x="502" y="500" type="line"/>
      <point x="345" y="300" type="line"/>
    </contour>
    <contour>
      <point x="287" y="316" type="line"/>
      <point x="385" y="443" type="line"/>
      <point x="188" y="443" type="line"/>
    </contour>
  </outline>
</glyph>
<glyph name="uni0491" format="2">
  <advance width="319" height="962"/>
  <unicode hex="0491"/>
  <outline>
    <component base="uni0433"/>
    <contour>
      <point x="259" y="593" type="line"/>
      <point x="308" y="593" type="line"/>
      <point x="308" y="472" type="line"/>
      <point x="257" y="472" type="line"/>
      <point x="257" y="501" type="line"/>
    </contour>
  </outline>
</glyph>
<glyph name="uni0497" format="2">
  <advance width="533" height="962"/>
  <unicode hex="0497"/>
  <outline>
    <component base="uni0436"/>
    <contour>
      <point x="451" y="57" type="line"/>
      <point x="519" y="57" type="line"/>
      <point x="519" y="-105" type="line"/>
      <point x="473" y="-105" type="line"/>
      <point x="463" y="0" type="line"/>
      <point x="451" y="0" type="line"/>
    </contour>
  </outline>
</glyph>
<glyph name="uni04BA" format="2">
  <advance width="520" height="962"/>
  <unicode hex="04BA"/>
  <outline>
    <contour>
      <point x="99" y="700" type="line"/>
      <point x="99" y="393" type="line"/>
      <point x="137" y="435"/>
      <point x="216" y="454"/>
      <point x="279" y="454" type="curve" smooth="yes"/>
      <point x="413" y="454"/>
      <point x="487" y="372"/>
      <point x="487" y="244" type="curve" smooth="yes"/>
      <point x="487" y="-1" type="line"/>
      <point x="431" y="-1" type="line"/>
      <point x="431" y="246" type="line" smooth="yes"/>
      <point x="431" y="348"/>
      <point x="370" y="399"/>
      <point x="267" y="399" type="curve" smooth="yes"/>
      <point x="188" y="399"/>
      <point x="99" y="368"/>
      <point x="99" y="276" type="curve" smooth="yes"/>
      <point x="99" y="-1" type="line"/>
      <point x="42" y="-1" type="line"/>
      <point x="42" y="700" type="line"/>
    </contour>
  </outline>
</glyph>
<glyph name="uni1E9E" format="2">
  <advance width="518"/>
  <unicode hex="1E9E"/>
  <outline>
    <contour>
      <point x="41" y="700" type="line"/>
      <point x="442" y="700" type="line"/>
      <point x="442" y="651" type="line"/>
      <point x="283" y="414" type="line"/>
      <point x="285" y="414" type="line" smooth="yes"/>
      <point x="405" y="414"/>
      <point x="497" y="319"/>
      <point x="497" y="200" type="curve" smooth="yes"/>
      <point x="497" y="81"/>
      <point x="404" y="-12"/>
      <point x="285" y="-12" type="curve" smooth="yes"/>
      <point x="228.817" y="-12"/>
      <point x="176.287" y="10.5292"/>
      <point x="137.389" y="47.5104" type="curve"/>
      <point x="172.144" y="90.2414" type="line"/>
      <point x="201.355" y="59.4138"/>
      <point x="239.156" y="44"/>
      <point x="285" y="44" type="curve" smooth="yes"/>
      <point x="372" y="44"/>
      <point x="441" y="113"/>
      <point x="441" y="200" type="curve" smooth="yes"/>
      <point x="441" y="282"/>
      <point x="377" y="356"/>
      <point x="292" y="356" type="curve" smooth="yes"/>
      <point x="181" y="356" type="line"/>
      <point x="374" y="647" type="line"/>
      <point x="98" y="647" type="line"/>
      <point x="98" y="0" type="line"/>
      <point x="41" y="0" type="line"/>
    </contour>
  </outline>
</glyph>
<glyph name="ellipsis" format="2">
  <advance width="490" height="962"/>
  <unicode hex="2026"/>
  <outline>
    <contour>
      <point x="68" y="63" type="curve" smooth="yes"/>
      <point x="87" y="63"/>
      <point x="102" y="48"/>
      <point x="102" y="29" type="curve" smooth="yes"/>
      <point x="102" y="12"/>
      <point x="87" y="-4"/>
      <point x="68" y="-4" type="curve" smooth="yes"/>
      <point x="50" y="-4"/>
      <point x="35" y="12"/>
      <point x="35" y="29" type="curve" smooth="yes"/>
      <point x="35" y="48"/>
      <point x="50" y="63"/>
    </contour>
    <contour>
      <point x="244" y="63" type="curve" smooth="yes"/>
      <point x="261" y="63"/>
      <point x="277" y="48"/>
      <point x="277" y="29" type="curve" smooth="yes"/>
      <point x="277" y="12"/>
      <point x="261" y="-4"/>
      <point x="244" y="-4" type="curve" smooth="yes"/>
      <point x="225" y="-4"/>
      <point x="210" y="12"/>
      <point x="210" y="29" type="curve" smooth="yes"/>
      <point x="210" y="48"/>
      <point x="225" y="63"/>
    </contour>
    <contour>
      <point x="422" y="63" type="curve" smooth="yes"/>
      <point x="441" y="63"/>
      <point x="456" y="48"/>
      <point x="456" y="29" type="curve" smooth="yes"/>
      <point x="456" y="12"/>
      <point x="441" y="-4"/>
      <point x="422" y="-4" type="curve" smooth="yes"/>
      <point x="404" y="-4"/>
      <point x="389" y="12"/>
      <point x="389" y="29" type="curve" smooth="yes"/>
      <point x="389" y="48"/>
      <point x="404" y="63"/>
    </contour>
  </outline>
</glyph>
<glyph name="guilsinglright" format="2">
  <advance width="284" height="962"/>
  <unicode hex="203A"/>
  <outline>
    <contour>
      <point x="181" y="267" type="line"/>
      <point x="31" y="417" type="line"/>
      <point x="68" y="455" type="line"/>
      <point x="255" y="267" type="line"/>
      <point x="68" y="79" type="line"/>
      <point x="33" y="114" type="line"/>
    </contour>
  </outline>
</glyph>
<glyph name="Euro" format="2">
  <advance width="423" height="962"/>
  <unicode hex="20AC"/>
  <outline>
    <component base="C"/>
    <contour>
      <point x="4" y="377" type="line"/>
      <point x="4" y="432" type="line"/>
      <point x="354" y="432" type="line"/>
      <point x="354" y="377" type="line"/>
    </contour>
    <contour>
      <point x="4" y="273" type="line"/>
      <point x="4" y="328" type="line"/>
      <point x="354" y="328" type="line"/>
      <point x="354" y="273" type="line"/>
    </contour>
  </outline>
</glyph>
<glyph name="uni20B4" format="2">
  <advance width="525" height="962"/>
  <unicode hex="20B4"/>
  <outline>
    <contour>
      <point x="32" y="394" type="line"/>
      <point x="32" y="449" type="line"/>
      <point x="462" y="449" type="line"/>
      <point x="462" y="394" type="line"/>
    </contour>
    <contour>
      <point x="32" y="295" type="line"/>
      <point x="32" y="350" type="line"/>
      <point x="462" y="350" type="line"/>
      <point x="462" y="295" type="line"/>
    </contour>
    <contour>
      <point x="103" y="624" type="curve"/>
      <point x="87" y="672" type="line"/>
      <point x="134" y="697"/>
      <point x="188" y="709"/>
      <point x="241" y="709" type="curve" smooth="yes"/>
      <point x="349" y="709"/>
      <point x="464" y="664"/>
      <point x="464" y="538" type="curve" smooth="yes"/>
      <point x="464" y="328"/>
      <point x="85" y="369"/>
      <point x="85" y="188" type="curve" smooth="yes"/>
      <point x="85" y="81"/>
      <point x="171" y="42"/>
      <point x="266" y="42" type="curve" smooth="yes"/>
      <point x="334" y="42"/>
      <point x="422" y="71"/>
      <point x="464" y="127" type="curve"/>
      <point x="499" y="92" type="line"/>
      <point x="437" y="20"/>
      <point x="356" y="-12"/>
      <point x="262" y="-12" type="curve" smooth="yes"/>
      <point x="143" y="-12"/>
      <point x="25" y="46"/>
      <point x="25" y="180" type="curve" smooth="yes"/>
      <point x="25" y="426"/>
      <point x="406" y="370"/>
      <point x="406" y="543" type="curve" smooth="yes"/>
      <point x="406" y="632"/>
      <point x="312" y="655"/>
      <point x="240" y="655" type="curve" smooth="yes"/>
      <point x="193" y="655"/>
      <point x="144" y="646"/>
    </contour>
  </outline>
  <guideline angle="90" x="57.4784" y="0"/>
  <guideline angle="0" x="0" y="586"/>
  <guideline angle="90" x="466.986" y="0"/>
  <guideline angle="0" x="0" y="586"/>
</glyph>
<glyph name="t_t" format="2">
  <advance width="380" height="962"/>
  <outline>
    <component base="t" xOffset="149.5"/>
    <contour>
      <point x="96" y="132" type="line" smooth="yes"/>
      <point x="96" y="79"/>
      <point x="118" y="45"/>
      <point x="162" y="30" type="curve"/>
      <point x="145" y="-13" type="line"/>
      <point x="72" y="9"/>
      <point x="40" y="54"/>
      <point x="40" y="132" type="curve" smooth="yes"/>
      <point x="40" y="700" type="line"/>
      <point x="96" y="700" type="line"/>
      <point x="96" y="500" type="line"/>
      <point x="203" y="500" type="line"/>
      <point x="203" y="448" type="line"/>
      <point x="96" y="448" type="line"/>
    </contour>
  </outline>
</glyph>
